<?xml version="1.0" encoding="UTF-8"?>
<svg id="Layer_2" data-name="Layer 2" xmlns="http://www.w3.org/2000/svg" viewBox="0 0 103.33 31.33">
  <defs>
    <style>
      .cls-1, .cls-2 {
        fill-rule: evenodd;
      }

      .cls-1, .cls-2, .cls-3, .cls-4, .cls-5 {
        stroke-width: 0px;
      }

      .cls-1, .cls-4 {
        fill: #095da9;
      }

      .cls-2, .cls-5 {
        fill: #ec2227;
      }

      .cls-3 {
        fill: #0b9eda;
      }
    </style>
  </defs>
  <g id="Layer_1-2" data-name="Layer 1">
    <path class="cls-4" d="M22.54,10.22l-2.99,2.99-.15.15-.95.95-.7.71-.95.95-.15.14-.41.42-.15.14h0l-1.4,1.4h0l-.15.14c-.41.41-.87.76-1.37,1.04-.24.13-.49.25-.75.35-.58.22-1.19.36-1.81.4-.38.03-.75.03-1.13,0-.82-.09-1.61-.34-2.33-.75-.33-.17-.63-.38-.9-.63h0l-.17-.17L.65,12.94l-.11-.11c-.1-.1-.18-.22-.25-.34C.1,12.17,0,11.81,0,11.44c0-.06,0-.11,0-.17v-.36H0c.07-.27.2-.53.37-.75.05-.06.1-.11.15-.16l.1-.1,5.86-5.79h0l3.51-3.5c.77-.78,2.02-.82,2.85-.1l9.7,9.7Z"/>
    <path class="cls-5" d="M11.99,23.24c-.47,0-.94-.11-1.37-.31l-1.11-1.11-.28-.27-.04-.05-.52-.52-2.59-2.62.17.17c.27.25.58.46.9.63.72.4,1.51.66,2.33.75.38.03.75.03,1.13,0,.62-.04,1.23-.17,1.81-.4.26-.1.51-.22.75-.35.5-.28.97-.63,1.37-1.04l.15-.14h0l1.4-1.4h0l.15-.14.41-.42.15-.14.95-.95.7-.71.97-.9.15-.15,6.01-5.97,2.46-2.74h0l.13-.13c.76-.75,1.98-.75,2.74,0l1.36,1.36h.04c-.62-.03-1.22.2-1.66.63l-4.59,4.48-.04.05-7.98,7.95h0l-2.95,2.89h0l-.18.19c-.4.39-.86.71-1.37.96-.28.14-.58.24-.88.3-.17.04-.35.06-.53.07h-.16Z"/>
    <path class="cls-5" d="M39.64,15.81l-.15.15-6.5,6.6-6.85,6.94c-.21.21-.44.41-.69.59h0l-.1.07h0c-2.46,1.75-5.81,1.52-8-.56h0l-.18-.1-1.17-1.17-3.31-3.31-1.11-1.11-.15-.16c.18.03.36.04.54.04h.16c.21,0,.42-.04.63-.08.35-.07.69-.18,1.01-.34.55-.27,1.05-.63,1.49-1.06l.2-.22,2.54-2.49h0l8.73-8.59.04-.06,4.29-4.15c.57-.55,1.45-.63,2.11-.19l1,1.01h0l5.45,5.46s.09.1.13.15c.63.77.57,1.89-.13,2.59Z"/>
    <path class="cls-3" d="M18.57,8.58c-.16.15-.41.15-.57,0-2.58-2.6-6.78-2.61-9.37-.03s-2.61,6.78-.03,9.37l2.02,2.03s0,.03,0,.04h0c-.37.03-.73.03-1.1,0l-1.49-1.49c-2.89-2.91-2.87-7.61.04-10.49,2.91-2.89,7.61-2.87,10.49.04h0c.14.15.15.38.01.53Z"/>
    <path class="cls-3" d="M21.66,11.12l-.56.55-.98-.99c-.15-.15-.15-.41,0-.56,0,0,0,0,0,0,.15-.15.41-.15.56,0,0,0,0,0,0,0l.98.99Z"/>
    <path class="cls-3" d="M13.21,19.22h0c-.24.13-.49.25-.75.34l-2.75-2.75c-1.72-1.73-1.96-4.44-.58-6.45.13-.18.37-.23.55-.1.18.13.22.37.1.55,0,0,0,0,0,0-1.16,1.7-.96,3.98.49,5.44l2.93,2.96Z"/>
    <path class="cls-3" d="M19.99,12.77h0l-.41.41-.13.13-3.08-3.11c-1.15-1.16-2.86-1.56-4.41-1.04-.2.09-.43,0-.53-.19-.09-.2,0-.43.19-.53.03-.01.06-.02.09-.03,1.82-.6,3.83-.11,5.18,1.25l3.11,3.1Z"/>
    <path class="cls-3" d="M18.34,14.43l-.56.56-3.1-3.12c-.83-.68-2.05-.56-2.73.27-.59.72-.59,1.75,0,2.47l1.99,2.01c.15.15.15.41,0,.56s-.41.15-.56,0l-2.03-2.01c-1.02-1.12-.93-2.85.19-3.87,1.05-.95,2.66-.95,3.7.02l3.09,3.11Z"/>
    <path class="cls-3" d="M16.68,16.08h0l-.41.42-.13.13-3.11-3.11c-.15-.15-.15-.41,0-.56s.41-.15.56,0l3.1,3.12Z"/>
    <path class="cls-1" d="M94.6,15.91l-4.62-6.62-.46-.43h4.57l3.08,5,.25-.2,1.86-2.77c.49-.63.37-1.53-.25-2.02h4.29l-4.97,7.03v5.11l.87,1.05h-5.36l.75-1.03c0-1.7-.06-3.42,0-5.12h-.01ZM82.08,8.86c.3.31.48.7.52,1.13.03.25,0,.51-.1.75l-3.43,9.95c-.23.5-.56.94-.98,1.3h3.73c-.27-.22-.46-.54-.52-.89-.07-.24-.07-.5,0-.75l.75-2.36h4.35l.68,1.82c.07.18.11.37.13.57.09.63-.18,1.26-.69,1.64h5.86c-.58-.47-1.05-1.04-1.4-1.7l-4.29-11.49-4.62.04ZM85.81,16.33h-3.11l1.49-4.3,1.61,4.3h.01ZM70.2,8.87h6.53c1.97,0,3.57,1.6,3.58,3.58v.44c-.02,1.95-1.61,3.53-3.56,3.54l-1.64.05c1.26-.69,1.94-2.09,1.7-3.5-.13-1.11-.69-2.17-1.64-2.19h-.6v9.79c0,.16.04.31.13.44.18.28.38.55.6.8l.17.21h-5.08l.22-.29c.16-.21.29-.44.4-.68.07-.14.1-.29.1-.45v-10.54c-.02-.55-.57-.87-.9-1.2Z"/>
    <path class="cls-2" d="M42.68,8.8h4.1l3.44,9.86,2.92-8.17c.05-.24.01-.49-.12-.69-.16-.34-.33-.66-.49-.99h3.06c-.18.66-.45,1.4-.68,2.07l-3.96,11.52c-1.19-.19-2.3-.71-3.21-1.49-.61-.66-1.06-1.46-1.29-2.32l-3.31-8.8c-.13-.34-.29-.66-.46-.98ZM59.05,13.44v7.05c0,.28.07.34.25.57l.81,1.05h-3.86l.65-.99c.16-.19.24-.44.24-.69v-9.86l-1.08-1.76h4l6.47,8.37v-6.65c0-.25-.07-.5-.23-.69-.22-.34-.45-.66-.66-.99h3.82l-.75,1.02c-.18.22-.25.28-.25.57v11.96c-1.58-.08-3.05-.85-4.03-2.1l-5.38-6.86Z"/>
    <path class="cls-3" d="M46.78,26.55c0,.52.22.8.8.8.22,0,.45-.04.66-.12.1-.04.13,0,.13.1v.06c0,.09,0,.13-.13.18-.21.08-.43.12-.65.11-.79,0-1.16-.35-1.16-1.13v-.75c-.08-.56.31-1.08.88-1.16.09-.01.19-.01.28,0,.22,0,.43.04.63.12.1.04.13.08.13.17v.06c0,.11-.04.14-.14.1-.2-.09-.42-.13-.63-.13-.55,0-.75.27-.75.85l-.04.73Z"/>
    <path class="cls-3" d="M47.59,27.69c-.8,0-1.17-.37-1.17-1.14v-.75c-.08-.56.31-1.09.88-1.16.1-.01.19-.01.29,0,.22,0,.43.04.63.12.11.04.13.09.13.18v.17s-.06,0-.11,0c-.2-.08-.42-.12-.63-.12-.54,0-.75.26-.75.84v.75c0,.55.24.79.79.79.22,0,.44-.04.65-.12h.11s0,.05,0,.11v.06c0,.1,0,.13-.13.18-.22.08-.45.11-.69.08ZM47.59,24.65c-.56-.08-1.08.31-1.16.87-.01.1-.01.21,0,.31v.75c0,.75.37,1.12,1.16,1.12.22.01.44-.03.64-.11.11-.04.13-.08.13-.17v-.18s-.04,0-.1,0c-.21.08-.43.12-.66.12-.55,0-.81-.25-.81-.8v-.75c0-.59.25-.85.79-.85.22,0,.44.04.64.12h.1s.02-.07,0-.1v-.06c0-.08,0-.13-.13-.17-.2-.07-.41-.1-.63-.09h0Z"/>
    <path class="cls-3" d="M48.86,24.64c0-.13,0-.15.14-.15h.05c.12,0,.14,0,.14.15v1.05c.18-.23.46-.34.75-.31.53,0,.84.22.84.75v1.34c0,.12,0,.14-.14.14h-.06c-.12,0-.14,0-.14-.14v-1.29c0-.36-.16-.52-.58-.52s-.63.17-.63.59v1.23c0,.12,0,.14-.14.14h-.05c-.11,0-.14,0-.14-.14l-.04-2.85Z"/>
    <path class="cls-3" d="M50.6,27.63h-.06c-.12,0-.14,0-.14-.15v-1.29c0-.37-.17-.51-.58-.51s-.62.17-.62.58v1.23c0,.12,0,.15-.15.15h-.05c-.12,0-.15,0-.15-.15v-2.85c0-.13,0-.16.15-.16h.05c.12,0,.15,0,.15.16v1.04c.18-.23.46-.34.75-.3.56,0,.84.27.84.81v1.34c0,.1-.06.1-.19.1ZM49.82,25.65c.42,0,.59.16.59.52v1.31c0,.12,0,.13.13.13h.06c.12,0,.14,0,.14-.13v-1.34c0-.53-.28-.79-.84-.79-.29-.05-.58.07-.75.31h0v-1.01c0-.12,0-.14-.13-.14h-.05c-.11,0-.14,0-.14.14v2.89c0,.12,0,.13.14.13h.05c.12,0,.13,0,.13-.13v-1.27c.02-.42.22-.6.66-.6h0Z"/>
    <path class="cls-3" d="M51.23,26.73v-.42c0-.63.34-.96,1-.96s.99.33.99.96v.42c0,.64-.33.96-.99.96s-1-.33-1-.96ZM52.88,26.31c0-.44-.16-.63-.65-.63s-.66.19-.66.63v.42c0,.44.16.63.66.63s.65-.19.65-.63v-.42Z"/>
    <path class="cls-3" d="M52.23,27.69c-.69,0-1-.31-1-.96v-.42c-.03-.27.06-.54.25-.75.21-.17.48-.26.75-.24.68,0,.99.31.99.96v.42c.07.47-.25.91-.73.99-.09.01-.17.01-.26,0ZM52.23,25.36c-.27-.02-.54.06-.75.23-.19.2-.28.47-.25.75v.42c0,.65.31.95.99.95.27.02.54-.06.75-.23.19-.2.28-.47.25-.75v-.42c0-.65-.32-.92-.99-.92v-.03ZM52.23,27.37c-.48,0-.66-.18-.66-.64v-.42c0-.46.18-.64.66-.64s.66.18.66.64v.42c0,.47-.18.64-.66.64ZM52.23,25.68c-.48,0-.65.16-.65.63v.42c0,.46.18.63.65.63s.65-.16.65-.63v-.42c0-.46-.18-.63-.65-.63Z"/>
    <path class="cls-3" d="M54.88,26.29c0-.6.32-.94,1.02-.94.13,0,.27.02.4.06.11,0,.14.07.14.17v.04c0,.11,0,.15-.14.11-.12-.05-.26-.07-.39-.07-.51,0-.68.2-.68.63v.44c0,.46.2.62.75.62.14,0,.27-.02.4-.06.1-.04.13,0,.13.11v.04c0,.1,0,.13-.14.16-.14.04-.28.06-.43.06-.69,0-1.02-.3-1.02-.94l-.04-.45Z"/>
    <path class="cls-3" d="M55.9,27.69c-.27.02-.53-.07-.75-.23-.19-.2-.28-.47-.25-.75v-.45c-.02-.26.08-.51.25-.69.21-.18.47-.27.75-.25.13,0,.27.02.4.06.12,0,.14.07.14.18v.16s-.08.02-.11,0c-.13-.04-.26-.06-.39-.06-.49,0-.68.18-.68.62v.44c0,.45.19.61.75.61.14,0,.27-.01.4-.06h.1s.04.05.04.12v.04c0,.1,0,.14-.15.17-.16.06-.33.08-.5.08ZM55.9,25.36c-.66,0-1.01.32-1.01.93v.45c0,.64.32.93,1.02.93.14,0,.29-.01.43-.05.11,0,.14-.07.14-.16v-.16s-.05,0-.1,0c-.13.04-.27.06-.41.06-.52,0-.75-.18-.75-.63v-.44c0-.45.2-.63.69-.63.13,0,.26.02.39.07h.1s0-.05,0-.11v-.04c0-.1,0-.13-.13-.17-.12-.02-.25-.02-.37,0v-.03Z"/>
    <path class="cls-3" d="M57.13,26.83c0,.36.15.53.6.53s.6-.16.6-.53v-1.29c0-.11,0-.14.15-.14h.04c.13,0,.15,0,.15.14v1.29c0,.55-.28.85-.95.85s-.98-.28-.98-.85v-1.29c0-.11,0-.14.15-.14h.04c.13,0,.15,0,.15.14l.03,1.29Z"/>
    <path class="cls-3" d="M57.74,27.69c-.63,0-.95-.29-.95-.86v-1.29c0-.11,0-.15.14-.15h.05c.13,0,.15,0,.15.15v1.29c0,.38.17.52.6.52s.6-.14.6-.52v-1.29c0-.11,0-.15.16-.15h.04c.13,0,.15,0,.15.15v1.29c.02.23-.06.46-.22.63-.21.17-.47.25-.73.22ZM56.93,25.39c-.1,0-.13,0-.13.13v1.29c-.02.24.06.47.23.63.21.16.48.24.75.21.27.03.54-.05.75-.22.16-.17.24-.4.22-.63v-1.28c0-.1,0-.13-.14-.13h-.04c-.11,0-.14,0-.14.13v1.29c0,.39-.17.54-.61.54s-.61-.15-.61-.54v-1.29c0-.1,0-.13-.14-.13h-.11Z"/>
    <path class="cls-3" d="M59.14,26.73v-.42c0-.63.33-.96,1-.96s.99.33.99.96v.42c0,.64-.33.96-.99.96s-1-.33-1-.96ZM60.79,26.31c0-.44-.16-.63-.65-.63s-.66.19-.66.63v.42c0,.44.17.63.66.63s.65-.19.65-.63v-.42ZM59.82,24.75c.1-.16.17-.22.32-.22s.21.04.32.22l.17.27c.05.08,0,.1-.06.1h0c-.08.01-.16-.03-.19-.1l-.1-.18c-.07-.13-.14-.13-.22,0l-.1.18c-.03.07-.11.11-.19.1h-.04c-.09,0-.1,0-.05-.1l.13-.27ZM59.98,28.09c.09-.09.23-.08.32,0s.08.23,0,.32c-.09.08-.23.08-.31,0-.09-.09-.09-.23,0-.32,0,0,0,0,0,0Z"/>
    <path class="cls-3" d="M60.14,28.47c-.12,0-.22-.1-.22-.22,0-.06.02-.12.07-.16h0s.1-.07.16-.07c.13,0,.23.1.23.23,0,.06-.02.12-.07.16-.04.04-.1.07-.16.07ZM60.14,28.03c-.06,0-.12.02-.16.07h0s-.06.1-.06.16c0,.06.02.11.06.16.09.08.23.08.31,0,.04-.04.07-.1.07-.16,0-.12-.1-.22-.22-.22ZM60.14,27.69c-.69,0-1.01-.31-1.01-.96v-.42c-.02-.27.07-.54.25-.75.21-.17.48-.26.75-.24.68,0,.99.31.99.96v.42c.07.47-.25.91-.73.99-.09.01-.17.01-.26,0ZM60.14,25.36c-.27-.02-.54.06-.75.23-.19.2-.28.47-.25.75v.42c0,.65.31.95.99.95.27.02.54-.06.75-.23.19-.2.28-.47.25-.75v-.42c0-.65-.32-.92-.99-.92v-.03ZM60.14,27.37c-.48,0-.66-.18-.66-.64v-.42c0-.46.18-.64.66-.64s.65.18.65.64v.42c0,.47-.17.64-.65.64ZM60.14,25.68c-.48,0-.66.16-.66.63v.42c0,.46.19.63.66.63s.64-.16.64-.63v-.42c0-.46-.17-.63-.64-.63ZM60.57,25.14h0c-.08.01-.16-.03-.19-.11l-.1-.17c0-.07-.07-.1-.1-.1h0s-.07,0-.1.1l-.1.17c-.03.08-.11.12-.19.11h-.13s0-.04,0-.08l.17-.27c.11-.16.17-.22.33-.22s.21.04.32.22l.17.27s.04.07,0,.08-.02,0-.07,0ZM60.14,24.75h0s.07,0,.11.1l.1.18c.03.07.1.12.18.1h.08s0,0,0-.07l-.13-.29c-.1-.18-.17-.22-.31-.22s-.21.05-.32.22l-.17.27v.07s0,0,.07,0h-.01c.08,0,.15-.04.18-.1l.1-.18s.07-.07.11-.07Z"/>
    <path class="cls-3" d="M61.57,26.29c0-.6.32-.94,1.02-.94.13,0,.27.02.4.06.11,0,.14.07.14.17v.04c0,.11,0,.15-.14.11-.12-.05-.26-.07-.39-.07-.51,0-.68.2-.68.63v.44c0,.46.2.62.71.62.14,0,.28-.02.41-.06.1-.04.13,0,.13.11v.04c0,.1,0,.13-.15.16-.13.04-.28.06-.42.06-.7,0-1.03-.3-1.03-.94v-.45Z"/>
    <path class="cls-3" d="M62.6,27.69c-.27.02-.54-.06-.75-.23-.19-.2-.29-.47-.25-.75v-.45c-.02-.26.07-.51.25-.69.21-.18.47-.27.75-.25.14,0,.27.02.4.06.11,0,.13.07.13.18v.16s-.08.02-.11,0c-.13-.04-.26-.06-.39-.06-.48,0-.68.18-.68.62v.44c0,.45.19.61.71.61.14,0,.27-.01.4-.06.04-.02.08-.02.11,0v.16c0,.1,0,.14-.14.17-.14.05-.29.08-.43.08ZM62.6,25.36c-.66,0-1.01.32-1.01.93v.45c0,.64.32.93,1.02.93.14,0,.28-.02.42-.05.11,0,.14-.07.14-.16v-.16s-.05,0-.1,0c-.13.04-.27.06-.41.06-.52,0-.75-.18-.75-.63v-.44c0-.45.2-.63.69-.63.13,0,.27.02.4.07h.1s0-.05,0-.11v-.04c0-.1,0-.13-.13-.17-.13-.02-.25-.02-.38,0v-.03Z"/>
    <path class="cls-3" d="M64.67,27.39c0-.11,0-.14.15-.12.22.06.44.1.66.1.35,0,.49-.07.49-.26s-.07-.22-.29-.33l-.55-.26c-.29-.14-.43-.28-.43-.59s.27-.54.81-.54c.19,0,.38.03.57.08.1,0,.13.07.13.17v.04c0,.11,0,.13-.14.1-.18-.06-.38-.09-.57-.08-.34,0-.46.07-.46.25s.08.22.24.3l.58.26c.31.15.46.28.46.61s-.28.58-.86.58c-.22,0-.43-.03-.64-.08-.12-.04-.15-.07-.15-.17v-.07Z"/>
    <path class="cls-3" d="M65.46,27.69c-.22,0-.44-.03-.65-.09-.11,0-.14-.07-.14-.17h0v-.11s.06,0,.12,0c.22.06.44.09.66.09.36,0,.49-.07.49-.25s-.07-.22-.29-.32l-.56-.27c-.28-.13-.43-.27-.43-.59s.26-.58.81-.58c.19,0,.39.03.57.09.11,0,.14.07.14.17v.04s.01.08,0,.11c-.04.02-.08.02-.12,0-.18-.06-.37-.09-.56-.09-.33,0-.46.07-.46.25,0,.14.1.25.23.29l.58.27c.3.13.46.28.46.61s-.28.55-.87.55ZM64.71,27.27h-.04v.1h0c0,.1,0,.13.14.16.21.06.43.09.64.08.59,0,.85-.17.85-.58s-.16-.47-.45-.6l-.58-.27c-.14-.04-.24-.16-.25-.3,0-.19.13-.26.47-.26.19,0,.38.03.57.09h.1s.01-.07,0-.1v-.04c0-.1,0-.13-.13-.16-.18-.06-.38-.09-.57-.08-.55,0-.8.18-.8.57s.14.45.42.58l.55.27c.22.1.3.19.3.33s-.13.26-.5.26c-.23,0-.45-.03-.67-.09l-.05.04Z"/>
    <path class="cls-3" d="M66.75,26.73v-.42c0-.63.34-.96,1-.96s.99.33.99.96v.42c0,.64-.33.96-.99.96s-1-.33-1-.96ZM68.4,26.31c0-.44-.15-.63-.65-.63s-.66.19-.66.63v.42c0,.44.16.63.66.63s.65-.19.65-.63v-.42ZM67.43,24.75c.11-.16.17-.22.32-.22s.22.04.32.22l.18.27c.05.08,0,.1-.06.1h0c-.08.01-.16-.03-.19-.1l-.1-.18c-.07-.13-.15-.13-.22,0l-.1.18c-.04.09-.09.1-.19.1h0c-.1,0-.11,0-.06-.1l.1-.27ZM68.59,24.49c-.04.07-.11.11-.19.1h-.04c-.1,0-.12,0-.07-.11l.19-.37c.03-.09.13-.15.23-.13h.04c.12,0,.14,0,.07.13l-.23.38Z"/>
    <path class="cls-3" d="M67.75,27.69c-.68,0-1-.31-1-.96v-.42c-.03-.27.06-.54.25-.75.21-.17.48-.25.75-.24.68,0,1,.31,1,.96v.42c0,.66-.33.99-.99.99ZM67.75,25.36c-.27-.02-.54.06-.75.23-.19.2-.28.47-.25.75v.42c0,.65.31.95.99.95.27.02.54-.06.75-.23.19-.2.28-.47.25-.75v-.42c-.04-.65-.32-.92-.99-.92v-.03ZM67.75,27.37c-.48,0-.66-.18-.66-.64v-.42c0-.46.18-.64.66-.64s.66.18.66.64v.42c0,.47-.18.64-.66.64ZM67.75,25.68c-.48,0-.65.16-.65.63v.42c0,.46.18.63.65.63s.65-.16.65-.63v-.42c0-.46-.18-.63-.65-.63ZM68.19,25.14h0c-.08.01-.16-.03-.19-.11l-.1-.17c-.07-.13-.13-.13-.21,0l-.1.17c-.03.08-.11.12-.19.11h-.09s0-.04,0-.08l.17-.27c.1-.16.17-.22.32-.22s.22.04.33.22l.17.27v.08s-.05,0-.1,0ZM67.75,24.75s.07,0,.11.1l.1.18c.03.07.11.11.19.1h.08s0,0,0-.07l-.17-.27c-.11-.18-.17-.22-.32-.22s-.21.05-.31.22l-.17.27v.07s0,0,.08,0h0c.08,0,.15-.03.19-.1l.1-.18c.05-.07.09-.1.13-.1ZM68.39,24.6h-.14s-.01-.07,0-.1l.19-.37c.02-.11.13-.19.24-.17,0,0,.01,0,.02,0h.16s0,.05,0,.11l-.22.37c-.04.1-.14.16-.25.14ZM68.7,23.98c-.1-.01-.19.04-.22.13l-.19.37v.09s0,0,.09,0h.04c.08,0,.16-.04.19-.11l.22-.37c0-.05.04-.08,0-.1s-.04,0-.1,0h-.03Z"/>
    <path class="cls-3" d="M69.57,27.5c0,.12,0,.14-.14.14h-.05c-.11,0-.15,0-.15-.14v-1.29c0-.57.32-.85.96-.85s.94.3.94.85v1.29c0,.12,0,.14-.14.14h-.03c-.13,0-.15,0-.15-.14v-1.29c0-.37-.14-.53-.6-.53s-.61.17-.61.53l-.02,1.29Z"/>
    <path class="cls-3" d="M70.95,27.63h0c-.13,0-.16,0-.16-.15v-1.28c0-.38-.16-.52-.59-.52s-.6.14-.6.52v1.29c0,.12,0,.15-.15.15h-.05c-.11,0-.15,0-.15-.15v-1.29c0-.57.32-.86.96-.86.27-.03.54.05.75.22.16.17.24.4.22.63v1.29c-.04.13-.07.13-.22.13ZM70.2,25.67c.44,0,.6.15.6.54v1.29c0,.12,0,.13.14.13h0c.12,0,.14,0,.14-.13v-1.29c.02-.23-.06-.46-.22-.63-.19-.14-.43-.21-.66-.19-.27-.03-.53.04-.75.21-.17.17-.26.4-.24.63v1.29c0,.12,0,.13.14.13h.1c.12,0,.14,0,.14-.13v-1.32c-.03-.39.14-.54.6-.54Z"/>
    <path class="cls-3" d="M73.48,26.2c0,.52-.31.79-.94.79-.16-.02-.32-.02-.48,0-.07.01-.12.07-.11.14,0,.06,0,.1.12.13.16.01.31.01.47,0,.26-.02.51.03.75.14.16.11.24.29.22.49.02.21-.06.41-.22.54-.23.12-.49.18-.75.16-.26.02-.52-.04-.75-.16-.15-.11-.23-.29-.22-.48-.01-.2.09-.39.26-.49-.12-.05-.2-.17-.19-.3,0-.2.12-.32.37-.36-.26-.11-.41-.38-.38-.66h0c0-.5.35-.75.94-.75.16,0,.32.03.47.09l.26-.23c.07-.07.11-.07.19,0h0c.07.07.07.1,0,.18l-.2.21c.13.13.2.32.19.51v.05ZM72.1,27.58c-.14.07-.22.22-.22.37,0,.3.17.37.66.37s.66-.07.66-.38-.16-.34-.66-.34c-.15,0-.29,0-.44-.03ZM73.13,26.14c0-.32-.2-.48-.6-.48s-.6.16-.6.48v.06c0,.32.15.49.6.49s.6-.16.6-.49v-.06Z"/>
    <path class="cls-3" d="M72.54,28.63c-.26.02-.52-.03-.75-.15-.15-.12-.23-.3-.22-.49-.01-.19.08-.38.25-.49-.12-.05-.19-.17-.18-.3,0-.2.12-.32.36-.36-.25-.11-.4-.38-.37-.66v-.06c0-.22.09-.44.25-.58.2-.15.45-.22.69-.21.16,0,.32.03.47.09l.26-.22c.07-.07.11-.07.19,0h0s.06.06.06.09,0,.05-.06.1l-.2.2c.14.13.21.32.2.51v.06c0,.52-.32.79-.95.79-.16-.02-.32-.02-.48,0-.06.01-.11.07-.1.13,0,.06.04.1.11.12.16.01.31.01.47,0,.27-.02.54.02.78.14.16.11.24.3.22.49.03.21-.06.42-.22.55-.23.15-.5.24-.78.25ZM72.54,25.36c-.58,0-.93.29-.93.75v.06c-.03.28.12.54.37.66h0c-.25.04-.37.15-.37.35,0,.13.07.25.19.3h0c-.17.1-.26.28-.25.48-.01.18.07.36.21.48.23.11.49.16.75.15.26.02.52-.03.75-.15.16-.13.24-.33.22-.54.02-.19-.06-.37-.22-.48-.23-.11-.49-.16-.75-.14-.16.02-.32.02-.48,0-.06-.01-.11-.06-.11-.13,0-.07.04-.13.11-.14.16-.02.32-.02.48,0,.26.03.53-.04.75-.19.16-.15.25-.37.23-.59v-.08c.01-.19-.06-.37-.2-.5h0l.2-.21s.06-.07.06-.09c0-.03-.02-.06-.05-.08h-.04c-.07-.07-.1-.07-.18,0l-.26.23h0c-.15-.07-.31-.1-.48-.1v-.03ZM72.54,28.35c-.51,0-.66-.09-.66-.38-.02-.16.07-.31.22-.37h0c.15,0,.29,0,.44,0,.49,0,.66.05.66.34s-.16.44-.66.44v-.03ZM72.1,27.6c-.14.07-.22.21-.21.37,0,.28.15.37.65.37s.65-.09.65-.38-.16-.34-.65-.34c-.15.01-.29.01-.44,0v-.03ZM72.54,26.7c-.43,0-.6-.14-.6-.49v-.07c0-.33.19-.49.6-.49s.6.16.6.49v.06c0,.35-.17.49-.6.49h0ZM72.54,25.67c-.4,0-.6.16-.6.48v.06c0,.34.17.49.6.49s.6-.14.6-.49v-.07c0-.31-.2-.48-.6-.48h0Z"/>
    <path class="cls-3" d="M77.5,25.02c0,.1,0,.13-.13.13h-.27v1.59c0,.63-.34.95-1,.95s-.99-.31-.99-.95v-.43c-.05-.46.28-.87.74-.92.07,0,.13,0,.2,0,.29-.05.58.08.75.33v-.54h-.62c-.1,0-.13,0-.13-.13h0c0-.1,0-.13.13-.13h.62v-.28c0-.13,0-.15.14-.15h-.01c.11,0,.15,0,.15.15v.25h.27c.1,0,.13,0,.13.13h.03ZM75.43,26.73c0,.44.15.63.65.63s.66-.19.66-.63v-.42c0-.44-.16-.63-.66-.63s-.65.19-.65.63v.42Z"/>
    <path class="cls-3" d="M76.1,27.69c-.27.02-.54-.07-.75-.24-.19-.2-.28-.47-.25-.75v-.43c-.03-.27.06-.54.24-.75.2-.19.47-.28.75-.25.28-.03.55.09.7.32v-.52h-.62c-.1,0-.13,0-.13-.13h0c0-.1,0-.13.13-.13h.61v-.18c0-.13,0-.16.15-.16h-.01c.11,0,.15,0,.15.16v.24h.27c.1,0,.13,0,.13.13h0c0,.1,0,.13-.13.13h-.27v1.58c.03.63-.31.96-.97.96ZM76.05,25.39c-.26-.02-.51.06-.7.23-.18.21-.26.48-.23.75v.43c-.03.27.05.55.24.75.21.17.48.26.75.23.27.02.54-.06.75-.23.19-.2.28-.47.25-.75v-1.66h.28c.09,0,.13,0,.13-.12h0c0-.09,0-.12-.13-.12h-.28v-.25c0-.13,0-.14-.14-.14h-.03c-.12,0-.13,0-.13.14v.25h-.61c-.1,0-.12,0-.12.12h0c0,.09,0,.12.12.12h.63v.57h0c-.17-.24-.46-.37-.75-.31ZM76.1,27.4c-.48,0-.66-.17-.66-.64v-.42c0-.46.19-.64.66-.64s.66.18.66.64v.42c0,.43-.19.61-.66.61v.03ZM76.1,25.71c-.46,0-.65.17-.65.63v.42c0,.46.18.63.65.63s.65-.16.65-.63v-.42c0-.49-.17-.66-.65-.66v.03Z"/>
    <path class="cls-3" d="M77.56,26.73v-.42c0-.63.33-.96,1-.96.5,0,.79.17.92.49.07,0,.13-.12.13-.36,0-.07,0-.09.1-.09h.07c.08,0,.1,0,.1.09,0,.37-.14.55-.36.6,0,.07,0,.14,0,.22v.42c0,.64-.33.96-.99.96s-.99-.33-.99-.96ZM79.21,26.31c0-.44-.16-.63-.65-.63s-.66.19-.66.63v.42c0,.44.17.63.66.63s.65-.19.65-.63v-.42Z"/>
    <path class="cls-3" d="M78.56,27.69c-.69,0-1.01-.31-1.01-.96v-.42c-.02-.27.07-.54.25-.75.21-.17.48-.26.75-.24.49,0,.75.16.92.49.09-.04.13-.16.13-.35,0-.07,0-.1.11-.1h.07c.08,0,.1,0,.1.1,0,.33-.12.54-.36.61,0,.07,0,.14,0,.21v.42c.07.47-.26.91-.73.98-.08.01-.16.01-.24,0ZM78.56,25.36c-.27-.02-.54.06-.75.23-.19.2-.28.47-.25.75v.42c0,.65.31.95.99.95.27.02.54-.06.75-.23.19-.2.28-.47.25-.75v-.42c0-.07,0-.14,0-.22h0c.24-.07.36-.28.36-.6,0-.07,0-.08-.1-.08h-.07c-.07,0-.1,0-.1.08,0,.2-.04.32-.14.37h0c-.16-.34-.45-.46-.94-.46v-.03ZM78.56,27.37c-.48,0-.66-.18-.66-.64v-.42c0-.46.18-.64.66-.64s.65.18.65.64v.42c0,.47-.17.64-.65.64ZM78.56,25.68c-.48,0-.66.16-.66.63v.42c0,.46.19.63.66.63s.64-.16.64-.63v-.42c0-.46-.17-.63-.64-.63Z"/>
    <path class="cls-3" d="M80.37,27.5c0,.12,0,.14-.15.14h-.05c-.11,0-.14,0-.14-.14v-1.29c0-.57.32-.85.95-.85s.95.3.95.85v1.29c0,.12,0,.14-.15.14h-.05c-.13,0-.15,0-.15-.14v-1.29c0-.37-.13-.53-.6-.53s-.6.17-.6.53v1.29Z"/>
    <path class="cls-3" d="M81.77,27.63h-.05c-.13,0-.15,0-.15-.15v-1.28c0-.38-.16-.52-.6-.52s-.6.14-.6.52v1.29c0,.12,0,.15-.15.15h-.05c-.11,0-.15,0-.15-.15v-1.29c0-.57.32-.86.96-.86.27-.03.54.05.75.22.16.17.25.4.22.63v1.29c-.02.13-.04.13-.17.13ZM80.98,25.65c.44,0,.6.15.6.54v1.29c0,.12,0,.13.14.13h.05c.12,0,.14,0,.14-.13v-1.28c.02-.23-.06-.46-.22-.63-.21-.17-.48-.25-.75-.22-.27-.03-.53.04-.75.21-.17.17-.26.4-.24.63v1.29c0,.12,0,.13.14.13h.05c.12,0,.14,0,.14-.13v-1.29c.06-.39.23-.54.67-.54h0Z"/>
    <path class="cls-3" d="M85.49,26.2c0,.52-.31.79-.93.79-.16-.02-.32-.02-.49,0-.07.01-.12.07-.11.14,0,.06,0,.1.12.13.16.01.32.01.48,0,.26-.02.51.03.75.14.15.11.24.3.22.49.02.21-.06.41-.22.54-.23.12-.49.18-.75.16-.27.02-.55-.03-.79-.16-.14-.12-.22-.29-.21-.48-.01-.2.09-.38.25-.49-.12-.05-.2-.17-.19-.3,0-.2.12-.32.37-.36-.26-.11-.41-.38-.38-.66h0c0-.5.35-.75.95-.75.16,0,.32.03.46.09l.26-.23c.07-.07.11-.07.19,0h0c.07.07.07.1,0,.18l-.2.21c.13.13.2.32.19.51l.04.05ZM84.11,27.58c-.14.07-.22.22-.22.37,0,.3.17.37.66.37s.65-.07.65-.38-.16-.34-.65-.34c-.15,0-.3,0-.45-.03ZM85.14,26.14c0-.32-.19-.48-.59-.48s-.6.16-.6.48v.06c0,.32.14.49.6.49s.59-.16.59-.49v-.06Z"/>
    <path class="cls-3" d="M84.56,28.63c-.27.03-.55-.03-.79-.15-.15-.12-.23-.3-.22-.49-.01-.2.09-.38.25-.49-.12-.05-.2-.17-.19-.3,0-.2.12-.32.36-.36-.25-.11-.4-.38-.37-.66v-.06c0-.22.09-.44.25-.58.2-.15.45-.22.7-.21.16,0,.32.03.46.09l.26-.22c.07-.07.11-.07.19,0h0s.06.06.06.09,0,.05-.06.1l-.19.2c.13.13.2.32.19.51v.06c0,.52-.32.79-.94.79-.16-.02-.32-.02-.49,0-.06.01-.11.07-.1.13,0,.06,0,.1.11.12.16.01.32.01.48,0,.26-.02.51.03.75.14.16.11.25.29.22.49.02.21-.06.42-.23.55-.21.14-.46.23-.71.25ZM84.56,25.36c-.59,0-.94.29-.94.75v.06c-.03.28.12.54.37.66h0c-.25.04-.36.15-.36.35,0,.13.06.24.18.3h0c-.17.1-.26.28-.25.48-.01.19.07.37.22.48.5.2,1.05.2,1.55,0,.16-.13.24-.33.22-.54.02-.19-.06-.37-.22-.48-.23-.11-.49-.16-.75-.14-.16.02-.32.02-.48,0-.08,0-.12-.07-.12-.13,0-.07.04-.13.11-.14.16-.02.32-.02.49,0,.25.02.5-.05.7-.19.16-.15.25-.37.23-.59v-.08c.01-.19-.06-.37-.2-.5h0l.21-.21s.05-.05.05-.09c0-.03-.02-.06-.05-.08h0c-.07-.07-.1-.07-.19,0l-.26.23h0c-.16-.07-.34-.11-.52-.1v-.03ZM84.56,28.35c-.52,0-.66-.09-.66-.38-.02-.16.07-.31.22-.37h0c.15,0,.3,0,.45,0,.49,0,.66.05.66.34s-.22.44-.66.44v-.03ZM84.11,27.6c-.14.07-.22.21-.21.37,0,.28.15.37.66.37s.64-.09.64-.38-.16-.34-.64-.34c-.15.01-.3.01-.45,0v-.03ZM84.56,26.7c-.43,0-.61-.14-.61-.49v-.07c0-.33.2-.49.61-.49s.6.16.6.49v.06c-.02.35-.17.49-.6.49h0ZM84.56,25.67c-.41,0-.6.16-.6.48v.06c0,.34.17.49.6.49s.59-.14.59-.49v-.07c-.01-.31-.2-.48-.59-.48h0Z"/>
    <path class="cls-3" d="M86.4,24.69c0,.12-.09.22-.21.22,0,0,0,0,0,0-.12,0-.23-.09-.23-.22,0,0,0,0,0,0,0-.12.11-.22.23-.22.12,0,.22.1.22.22ZM86.02,25.54c0-.11,0-.14.14-.14h.05c.11,0,.14,0,.14.14v1.96c0,.12,0,.14-.14.14h-.05c-.13,0-.14,0-.14-.14v-1.96Z"/>
    <path class="cls-3" d="M86.21,27.63h-.05c-.13,0-.15,0-.15-.15v-1.94c0-.11,0-.15.15-.15h.05c.11,0,.15,0,.15.15v1.96c0,.13-.04.13-.15.13ZM86.16,25.39c-.12,0-.14,0-.14.13v1.96c0,.12,0,.13.14.13h.05c.1,0,.13,0,.13-.13v-1.94c0-.1,0-.13-.13-.13h-.05ZM86.16,24.9c-.12,0-.22-.1-.22-.22,0-.12.1-.22.22-.22h0c.12,0,.22.1.22.22,0,.12-.1.22-.22.22h0ZM86.16,24.46c-.12,0-.22.1-.22.22s.1.22.22.22h0c.12,0,.22-.1.22-.22s-.1-.22-.22-.22Z"/>
    <path class="cls-3" d="M88.65,26.97c0,.51-.29.75-.95.75-.52,0-.85-.21-.85-.68s.31-.66.93-.66h.54v-.31c0-.31-.22-.41-.6-.41-.17,0-.34.02-.5.05-.11,0-.15,0-.15-.11v-.04c0-.1,0-.13.14-.16.16-.03.33-.05.49-.04.63,0,.95.24.95.71v.9ZM88.31,26.61h-.54c-.4,0-.59.11-.59.4s.17.39.52.39.61-.1.61-.44v-.34ZM87.77,25.11c-.08,0-.09,0-.1-.09s.07-.18.2-.32c.03-.03.05-.06.06-.1,0-.08,0-.12-.08-.12-.07-.02-.14-.02-.2,0-.05,0-.09,0-.12-.04v-.04c0-.07,0-.1.07-.12.08-.04.18-.05.27-.05.16-.01.31.11.32.27,0,.02,0,.04,0,.06,0,.19-.27.28-.28.43,0,.05-.04.08-.09.09l-.04.04Z"/>
    <path class="cls-3" d="M87.7,27.69c-.56,0-.86-.24-.86-.69s.28-.67.93-.67h.53v-.27c0-.28-.18-.4-.59-.4-.17,0-.34.01-.5.04h-.12s0-.05,0-.1v-.04c0-.1,0-.13.14-.16.16-.03.33-.05.49-.04.63,0,.96.25.96.75v.9c-.03.46-.33.69-.99.69ZM87.77,26.35c-.64,0-.93.2-.93.66s.29.67.85.67c.26.03.52-.03.75-.16.16-.13.25-.34.23-.55v-.9c.01-.21-.08-.4-.24-.53-.21-.13-.46-.19-.71-.17-.17,0-.33.01-.49.04-.11,0-.13.04-.13.15v.13s.05,0,.11,0c.16-.04.33-.05.5-.05.42,0,.6.13.6.42v.28h-.54ZM87.7,27.39c-.35,0-.52-.13-.52-.39s.18-.4.59-.4h.54v.35c0,.37-.23.44-.61.44ZM87.77,26.64c-.41,0-.58.11-.58.39s.16.38.51.38.6-.12.6-.43v-.34h-.53ZM87.77,25.15c-.09,0-.1,0-.11-.09s.04-.16.14-.27l.07-.07s.05-.06.05-.1c0-.08,0-.11-.07-.12h0c-.06,0-.12.02-.17.04-.06,0-.1,0-.13-.05v-.04c0-.07,0-.1.07-.12.08-.04.18-.05.27-.05.09,0,.17.03.24.08.06.07.09.16.08.25-.01.1-.07.19-.15.25-.06.04-.11.1-.13.17,0,.05-.04.09-.09.09h-.06ZM87.82,24.5h0s.09,0,.09.13c0,.04-.03.08-.06.1l-.07.07c-.1.1-.15.15-.14.25s0,.08.1.08h0s.08-.04.08-.08c.02-.07.06-.14.13-.18.08-.05.14-.13.16-.23,0-.09-.02-.18-.08-.25-.06-.06-.15-.09-.23-.08-.09,0-.18.02-.27.05-.05,0-.08.04-.06.11h0c0,.07.07.07.12.05.07-.03.15-.04.22-.03Z"/>
    <path class="cls-3" d="M89.47,27.5c0,.12,0,.14-.15.14h-.05c-.11,0-.14,0-.14-.14v-1.29c0-.57.32-.85.95-.85s.95.3.95.85v1.29c0,.12,0,.14-.15.14h-.05c-.13,0-.15,0-.15-.14v-1.29c0-.37-.13-.53-.6-.53s-.6.17-.6.53v1.29Z"/>
    <path class="cls-3" d="M90.88,27.63h-.05c-.13,0-.15,0-.15-.15v-1.28c0-.38-.16-.52-.6-.52s-.6.14-.6.52v1.29c0,.12,0,.15-.15.15h-.05c-.11,0-.15,0-.15-.15v-1.29c0-.57.32-.86.96-.86.27-.03.54.05.75.22.16.17.25.4.22.63v1.29c-.02.13-.04.13-.17.13ZM90.08,25.65c.44,0,.6.15.6.54v1.29c0,.12,0,.13.14.13h.05c.12,0,.14,0,.14-.13v-1.28c.02-.23-.06-.46-.22-.63-.21-.17-.48-.25-.75-.22-.27-.03-.53.04-.75.21-.17.17-.26.4-.24.63v1.29c0,.12.04.13.14.13h.05c.12,0,.14,0,.14-.13v-1.29c.06-.39.21-.54.67-.54h0Z"/>
    <path class="cls-3" d="M92.81,24.64c0-.13,0-.15.15-.15h.05c.12,0,.14,0,.14.15v1.05c.18-.23.46-.35.75-.31.55,0,.84.26.84.8v1.34c0,.12,0,.14-.14.14h-.06c-.12,0-.14,0-.14-.14v-1.34c0-.36-.16-.52-.58-.52s-.63.17-.63.59v1.23c0,.12,0,.14-.14.14h-.05c-.12,0-.15,0-.15-.14l-.03-2.85Z"/>
    <path class="cls-3" d="M94.57,27.63h-.06c-.12,0-.15,0-.15-.15v-1.29c0-.37-.16-.51-.58-.51s-.62.17-.62.58v1.23c0,.12,0,.15-.15.15h-.05c-.11,0-.15,0-.15-.15v-2.85c0-.13,0-.16.15-.16h.05c.12,0,.15,0,.15.16v1.04c.18-.23.46-.34.75-.3.56,0,.84.27.84.81v1.34c-.04.1-.07.1-.19.1ZM93.82,25.65c.42,0,.59.16.59.52v1.31c0,.12,0,.13.13.13h.06c.12,0,.13,0,.13-.13v-1.34c0-.53-.28-.79-.83-.79-.29-.04-.57.08-.75.31h0v-1.01c0-.12,0-.14-.13-.14h-.05c-.11,0-.14,0-.14.14v2.89c0,.12,0,.13.14.13h.05c.11,0,.13,0,.13-.13v-1.27c-.01-.42.19-.6.62-.6h.04Z"/>
    <path class="cls-3" d="M95.19,26.73v-.42c0-.63.33-.96,1-.96.38-.06.75.14.92.49.07,0,.13-.12.13-.36,0-.07,0-.09.1-.09h.07c.08,0,.1,0,.1.09,0,.37-.15.55-.36.6,0,.07,0,.14,0,.22v.42c0,.64-.33.96-.99.96s-.99-.33-.99-.96ZM96.84,26.31c0-.44-.16-.63-.65-.63s-.66.19-.66.63v.42c0,.44.16.63.66.63s.65-.19.65-.63v-.42Z"/>
    <path class="cls-3" d="M96.19,27.69c-.69,0-1.01-.31-1.01-.96v-.42c-.02-.27.07-.54.25-.75.21-.17.48-.26.75-.24.49,0,.78.16.92.49.09-.04.13-.16.13-.35,0-.07,0-.1.11-.1h.07c.08,0,.1,0,.1.1,0,.33-.12.54-.36.61,0,.07,0,.14,0,.21v.42c.07.47-.26.91-.73.98-.08.01-.16.01-.24,0ZM96.19,25.36c-.27-.02-.54.06-.75.23-.19.2-.28.47-.25.75v.42c0,.65.31.95.99.95.27.02.54-.06.75-.23.19-.2.28-.47.25-.75v-.42c0-.07,0-.14,0-.22h0c.24-.07.35-.28.35-.6,0-.07,0-.08-.09-.08h-.07c-.07,0-.1,0-.1.08,0,.2-.04.32-.14.37h0c-.16-.34-.45-.46-.94-.46v-.03ZM96.19,27.37c-.48,0-.66-.18-.66-.64v-.42c0-.46.18-.64.66-.64s.65.18.65.64v.42c0,.47-.17.64-.65.64ZM96.19,25.68c-.48,0-.66.16-.66.63v.42c0,.46.19.63.66.63s.64-.16.64-.63v-.42c0-.46-.17-.63-.64-.63Z"/>
    <path class="cls-3" d="M98.01,27.5c0,.12,0,.14-.15.14h-.03c-.11,0-.14,0-.14-.14v-1.29c0-.57.31-.85.95-.85s.95.3.95.85v1.29c0,.12,0,.14-.15.14h-.05c-.13,0-.15,0-.15-.14v-1.29c0-.37-.13-.53-.6-.53s-.6.17-.6.53l-.02,1.29Z"/>
    <path class="cls-3" d="M99.41,27.63h-.05c-.13,0-.15,0-.15-.15v-1.28c0-.38-.16-.52-.6-.52s-.6.14-.6.52v1.29c0,.12,0,.15-.15.15h-.03c-.11,0-.15,0-.15-.15v-1.29c0-.57.32-.86.96-.86.27-.03.54.05.75.22.16.17.25.4.22.63v1.29c-.04.13-.07.13-.19.13ZM98.61,25.65c.44,0,.6.15.6.54v1.29c0,.12,0,.13.14.13h.05c.12,0,.14,0,.14-.13v-1.28c.02-.23-.06-.46-.22-.63-.21-.17-.48-.25-.75-.22-.27-.03-.53.04-.75.21-.17.17-.26.4-.24.63v1.29c0,.12.04.13.14.13h.08c.12,0,.14,0,.14-.13v-1.29c.03-.39.2-.54.64-.54h0Z"/>
  </g>
</svg>