<svg xmlns="http://www.w3.org/2000/svg" viewBox="0 0 720 840" role="img" aria-label="Ảnh hồ sơ minh họa của Nguyễn Xuân Văn">
  <rect width="720" height="840" rx="54" fill="#F8FAFC"/>
  <rect x="44" y="44" width="632" height="752" rx="44" fill="#FFFFFF" stroke="#E2E8F0" stroke-width="2"/>
  <circle cx="360" cy="265" r="112" fill="#DBEAFE"/>
  <path d="M282 268c18-69 136-72 156 0 6 24-5 56-25 76-29 28-77 28-106 0-20-20-31-52-25-76Z" fill="#0F1B33"/>
  <path d="M213 671c18-112 84-180 147-180s129 68 147 180H213Z" fill="#2563EB"/>
  <path d="M250 671c14-70 58-112 110-112s96 42 110 112H250Z" fill="#EFF6FF"/>
  <rect x="132" y="98" width="156" height="12" rx="6" fill="#2563EB"/>
  <rect x="132" y="124" width="268" height="10" rx="5" fill="#CBD5E1"/>
  <rect x="132" y="714" width="456" height="2" fill="#E2E8F0"/>
  <text x="132" y="756" fill="#0F1B33" font-family="Arial, sans-serif" font-size="28" font-weight="700">Nguyễn Xuân Văn</text>
  <text x="132" y="790" fill="#475569" font-family="Arial, sans-serif" font-size="18">E-commerce &amp; Digital Marketing</text>
</svg>
